<svg width="378" height="246" xmlns="http://www.w3.org/2000/svg" xmlns:xlink="http://www.w3.org/1999/xlink" overflow="hidden"><defs><clipPath id="clip0"><rect x="0" y="0" width="378" height="246"/></clipPath></defs><g clip-path="url(#clip0)"><rect x="0" y="0" width="378" height="246.334" fill="#FFFFFF"/><path d="M22 130.176C22 75.426 96.7684 31.0421 189 31.0421 281.232 31.0421 356 75.426 356 130.176 356 184.927 281.232 229.311 189 229.311 96.7684 229.311 22 184.927 22 130.176Z" stroke="#000000" stroke-width="2" stroke-miterlimit="8" fill="none" fill-rule="evenodd"/><path d="M69 149.202C69 114.914 122.95 87.118 189.5 87.118 256.05 87.118 310 114.914 310 149.202 310 183.49 256.05 211.286 189.5 211.286 122.95 211.286 69 183.49 69 149.202Z" stroke="#000000" stroke-width="2" stroke-miterlimit="8" fill="none" fill-rule="evenodd"/><rect x="151" y="73.0991" width="79" height="32.0434" fill="#FFFFFF"/><text font-family="Yu Gothic,Yu Gothic_MSFontService,sans-serif" font-weight="700" font-size="19" transform="matrix(1 0 0 1.00136 160.57 95)">収束列</text><rect x="151" y="17.0231" width="76" height="33.0448" fill="#FFFFFF"/><text font-family="Yu Gothic,Yu Gothic_MSFontService,sans-serif" font-weight="700" font-size="19" transform="matrix(1 0 0 1.00136 160.57 39)">基本列</text><text font-family="Yu Gothic,Yu Gothic_MSFontService,sans-serif" font-weight="400" font-size="14" transform="matrix(1 0 0 1.00136 9.6 18)">収束先</text><text font-family="Calibri,Calibri_MSFontService,sans-serif" font-weight="400" font-size="14" transform="matrix(1 0 0 1.00136 51.6 18)">(</text><text font-family="Yu Gothic,Yu Gothic_MSFontService,sans-serif" font-weight="400" font-size="14" transform="matrix(1 0 0 1.00136 55.7667 18)">極限</text><text font-family="Calibri,Calibri_MSFontService,sans-serif" font-weight="400" font-size="14" transform="matrix(1 0 0 1.00136 83.7667 18)">)</text><text font-family="Yu Gothic,Yu Gothic_MSFontService,sans-serif" font-weight="400" font-size="14" transform="matrix(1 0 0 1.00136 87.9333 18)">が</text><text font-family="Yu Gothic,Yu Gothic_MSFontService,sans-serif" font-weight="400" font-size="14" transform="matrix(1 0 0 1.00136 9.6 35)">距離</text><text font-family="Yu Gothic,Yu Gothic_MSFontService,sans-serif" font-weight="400" font-size="14" transform="matrix(1 0 0 1.00136 37.6 35)">空間に</text><text font-family="Yu Gothic,Yu Gothic_MSFontService,sans-serif" font-weight="400" font-size="14" transform="matrix(1 0 0 1.00136 9.6 52)">含まれない</text><path d="M47.7719 55.4394 75.7719 89.4855 74.2281 90.7587 46.2281 56.7126ZM78.0877 87.5758C79.4921 89.2835 79.2481 91.8078 77.5428 93.214 75.8375 94.6203 73.3166 94.376 71.9123 92.6684 70.5079 90.9608 70.7519 88.4365 72.4572 87.0302 74.1625 85.6239 76.6834 85.8682 78.0877 87.5758Z" fill="#172C51"/></g></svg>