<svg width="643" height="265" xmlns="http://www.w3.org/2000/svg" xmlns:xlink="http://www.w3.org/1999/xlink" overflow="hidden"><defs><clipPath id="clip0"><rect x="0" y="0" width="643" height="265"/></clipPath></defs><g clip-path="url(#clip0)"><rect x="0" y="0" width="643" height="265.294" fill="#FFFFFF"/><path d="M17.5 157.174C17.5 103.82 74.136 60.5672 144 60.5672 213.864 60.5672 270.5 103.82 270.5 157.174 270.5 210.529 213.864 253.782 144 253.782 74.136 253.782 17.5 210.529 17.5 157.174Z" stroke="#172C51" stroke-width="3.00233" stroke-miterlimit="8" fill="#FFFFFF" fill-rule="evenodd"/><path d="M134.5 139.154C134.5 133.902 138.753 129.644 144 129.644 149.247 129.644 153.5 133.902 153.5 139.154 153.5 144.407 149.247 148.665 144 148.665 138.753 148.665 134.5 144.407 134.5 139.154Z" stroke="#172C51" stroke-width="1.33437" stroke-miterlimit="8" fill-rule="evenodd"/><rect x="106" y="36.04" width="68" height="68.0756" fill="#FFFFFF"/><text font-family="Yu Gothic,Yu Gothic_MSFontService,sans-serif" font-weight="700" font-size="24.0454" transform="matrix(1 0 0 1.00111 115.391 63)">集合</text><text font-family="Calibri,Calibri_MSFontService,sans-serif" font-weight="700" font-size="24.0454" transform="matrix(1 0 0 1.00111 115.391 92)">(set)</text><rect x="85" y="158.176" width="117" height="68.0755" fill="#FFFFFF"/><text font-family="Yu Gothic,Yu Gothic_MSFontService,sans-serif" font-weight="700" font-size="24.0454" transform="matrix(1 0 0 1.00111 119.509 185)">要素</text><text font-family="Calibri,Calibri_MSFontService,sans-serif" font-weight="700" font-size="24.0454" transform="matrix(1 0 0 1.00111 94.8502 214)">(element)</text><path d="M371.5 157.174C371.5 103.82 428.136 60.5672 498 60.5672 567.864 60.5672 624.5 103.82 624.5 157.174 624.5 210.529 567.864 253.782 498 253.782 428.136 253.782 371.5 210.529 371.5 157.174Z" stroke="#172C51" stroke-width="3.00233" stroke-miterlimit="8" fill="#FFFFFF" fill-rule="evenodd"/><path d="M488.5 139.154C488.5 133.902 492.753 129.644 498 129.644 503.247 129.644 507.5 133.902 507.5 139.154 507.5 144.407 503.247 148.665 498 148.665 492.753 148.665 488.5 144.407 488.5 139.154Z" stroke="#172C51" stroke-width="1.33437" stroke-miterlimit="8" fill-rule="evenodd"/><rect x="452" y="36.04" width="92" height="68.0756" fill="#FFFFFF"/><text font-family="Yu Gothic,Yu Gothic_MSFontService,sans-serif" font-weight="700" font-size="24.0454" transform="matrix(1 0 0 1.00111 473.88 63)">空間</text><text font-family="Calibri,Calibri_MSFontService,sans-serif" font-weight="700" font-size="24.0454" transform="matrix(1 0 0 1.00111 462.284 92)">(space)</text><rect x="454" y="158.176" width="88.0001" height="68.0755" fill="#FFFFFF"/><text font-family="Yu Gothic,Yu Gothic_MSFontService,sans-serif" font-weight="700" font-size="24.0454" transform="matrix(1 0 0 1.00111 485.791 185)">点</text><text font-family="Calibri,Calibri_MSFontService,sans-serif" font-weight="700" font-size="24.0454" transform="matrix(1 0 0 1.00111 464.054 214)">(point)</text><path d="M181 44.2991 449.5 44.2991 449.5 39.0433 460 49.5552 449.5 60.0667 449.5 54.8109 181 54.8109Z" fill="#4472C4" fill-rule="evenodd" fill-opacity="0.301961"/><path d="M163 131.646 472 131.646 472 126.14 483 137.152 472 148.164 472 142.658 163 142.658Z" fill="#4472C4" fill-rule="evenodd" fill-opacity="0.301961"/><text font-family="Yu Gothic,Yu Gothic_MSFontService,sans-serif" font-weight="700" font-size="24.0454" transform="matrix(1 0 0 1.00111 239.603 35)">＋数学的構造</text></g></svg>